<svg width="26" height="26" viewBox="0 0 26 26" fill="none" xmlns="http://www.w3.org/2000/svg">
<g clip-path="url(#clip0_101_67)">
<path d="M12.4426 10.1514C12.6214 9.61513 13.3786 9.61513 13.5574 10.1514L14.6055 13.299C14.8362 13.9909 15.2249 14.6196 15.7408 15.1352C16.2567 15.6508 16.8856 16.0392 17.5776 16.2695L20.7236 17.3176C21.2599 17.4964 21.2599 18.2536 20.7236 18.4324L17.576 19.4805C16.8841 19.7112 16.2554 20.0999 15.7398 20.6158C15.2242 21.1317 14.8358 21.7606 14.6055 22.4526L13.5574 25.5986C13.5188 25.7161 13.4442 25.8183 13.3441 25.8908C13.244 25.9633 13.1236 26.0023 13 26.0023C12.8764 26.0023 12.756 25.9633 12.6559 25.8908C12.5558 25.8183 12.4812 25.7161 12.4426 25.5986L11.3945 22.451C11.164 21.7593 10.7755 21.1307 10.2599 20.6151C9.74432 20.0995 9.11575 19.711 8.424 19.4805L5.27637 18.4324C5.15895 18.3938 5.05669 18.3192 4.9842 18.2191C4.91171 18.119 4.87267 17.9986 4.87267 17.875C4.87267 17.7514 4.91171 17.631 4.9842 17.5309C5.05669 17.4308 5.15895 17.3562 5.27637 17.3176L8.424 16.2695C9.11575 16.039 9.74432 15.6505 10.2599 15.1349C10.7755 14.6193 11.164 13.9908 11.3945 13.299L12.4426 10.1514ZM6.16525 1.86551C6.18855 1.79514 6.23344 1.7339 6.29353 1.69049C6.35362 1.64709 6.42587 1.62373 6.5 1.62373C6.57413 1.62373 6.64637 1.64709 6.70647 1.69049C6.76656 1.7339 6.81145 1.79514 6.83475 1.86551L7.46362 3.75376C7.74475 4.59551 8.4045 5.25526 9.24625 5.53638L11.1345 6.16526C11.2049 6.18856 11.2661 6.23345 11.3095 6.29354C11.3529 6.35363 11.3763 6.42588 11.3763 6.50001C11.3763 6.57414 11.3529 6.64638 11.3095 6.70647C11.2661 6.76657 11.2049 6.81146 11.1345 6.83476L9.24625 7.46363C8.8311 7.60195 8.45387 7.83505 8.14446 8.14447C7.83504 8.45388 7.60194 8.83111 7.46362 9.24626L6.83475 11.1345C6.81145 11.2049 6.76656 11.2661 6.70647 11.3095C6.64637 11.3529 6.57413 11.3763 6.5 11.3763C6.42587 11.3763 6.35362 11.3529 6.29353 11.3095C6.23344 11.2661 6.18855 11.2049 6.16525 11.1345L5.53637 9.24626C5.39806 8.83111 5.16496 8.45388 4.85554 8.14447C4.54612 7.83505 4.16889 7.60195 3.75375 7.46363L1.8655 6.83476C1.79513 6.81146 1.73389 6.76657 1.69048 6.70647C1.64708 6.64638 1.62372 6.57414 1.62372 6.50001C1.62372 6.42588 1.64708 6.35363 1.69048 6.29354C1.73389 6.23345 1.79513 6.18856 1.8655 6.16526L3.75375 5.53638C4.16889 5.39807 4.54612 5.16497 4.85554 4.85555C5.16496 4.54613 5.39806 4.1689 5.53637 3.75376L6.16525 1.86551ZM17.6524 0.160883C17.6684 0.114613 17.6985 0.0744916 17.7384 0.0460958C17.7783 0.0177 17.826 0.00244141 17.875 0.00244141C17.924 0.00244141 17.9717 0.0177 18.0116 0.0460958C18.0515 0.0744916 18.0816 0.114613 18.0976 0.160883L18.5169 1.41863C18.7038 1.98088 19.1441 2.42126 19.7064 2.60813L20.9641 3.02738C21.0104 3.04342 21.0505 3.07348 21.0789 3.11338C21.1073 3.15328 21.1226 3.20104 21.1226 3.25001C21.1226 3.29898 21.1073 3.34673 21.0789 3.38663C21.0505 3.42653 21.0104 3.45659 20.9641 3.47263L19.7064 3.89188C19.4293 3.98406 19.1775 4.13956 18.971 4.34604C18.7646 4.55253 18.6091 4.8043 18.5169 5.08138L18.0976 6.33913C18.0816 6.3854 18.0515 6.42552 18.0116 6.45392C17.9717 6.48232 17.924 6.49757 17.875 6.49757C17.826 6.49757 17.7783 6.48232 17.7384 6.45392C17.6985 6.42552 17.6684 6.3854 17.6524 6.33913L17.2331 5.08138C17.1409 4.8043 16.9854 4.55253 16.779 4.34604C16.5725 4.13956 16.3207 3.98406 16.0436 3.89188L14.7875 3.47263C14.7412 3.45659 14.7011 3.42653 14.6727 3.38663C14.6443 3.34673 14.6291 3.29898 14.6291 3.25001C14.6291 3.20104 14.6443 3.15328 14.6727 3.11338C14.7011 3.07348 14.7412 3.04342 14.7875 3.02738L16.0452 2.60813C16.6075 2.42126 17.0479 1.98088 17.2347 1.41863L17.6524 0.162508V0.160883Z" fill="#050304"/>
</g>
<defs>
<clipPath id="clip0_101_67">
<rect width="26" height="26" fill="white"/>
</clipPath>
</defs>
</svg>
